<svg xmlns="http://www.w3.org/2000/svg" viewBox="0 0 395.52 197.1146892272956" height="197.1146892272956" width="395.52"><g><svg viewBox="0 0 397.4975999999999 198.10026267343204" height="197.1146892272956" width="395.52"><g><rect width="397.4975999999999" height="5.66680129770608" x="0" y="101.67676032568649" fill="#030303" opacity="1" stroke-width="0" stroke="transparent" fill-opacity="1" class="rect-qz-0" data-fill-palette-color="primary" rx="1%" id="qz-0" data-palette-color="#030303"/></g><g><rect width="397.4975999999999" height="5.66680129770608" x="0" y="114.76084080887173" fill="#030303" opacity="1" stroke-width="0" stroke="transparent" fill-opacity="1" class="rect-qz-1" data-fill-palette-color="primary" rx="1%" id="qz-1" data-palette-color="#030303"/></g><g transform="matrix(1,0,0,1,0.9887999999999693,135.26220047753614)"><svg viewBox="0 0 395.52 62.838062195895915" height="62.838062195895915" width="395.52"><g id="textblocktransform"><svg viewBox="0 0 395.52 62.838062195895915" height="62.838062195895915" width="395.52" id="textblock"><g><svg viewBox="0 0 395.52 62.838062195895915" height="62.838062195895915" width="395.52"><g transform="matrix(1,0,0,1,0,0)"><svg width="395.52" viewBox="3.15 -31.7 236.32 37.55" height="62.838062195895915" data-palette-color="#030303"><path d="M11.6 0L3.15 0 3.15-29.55 12-29.55Q13.9-29.55 15.28-29 16.65-28.45 17.38-27.13 18.1-25.8 18.1-23.5L18.1-23.5 18.1-6.45Q18.1-3.9 17.3-2.5 16.5-1.1 15.03-0.55 13.55 0 11.6 0L11.6 0ZM6.4-27.65L6.4-1.8 11.2-1.8Q12.9-1.8 13.93-2.73 14.95-3.65 14.95-6.3L14.95-6.3 14.95-23.1Q14.95-25.75 13.93-26.7 12.9-27.65 11.2-27.65L11.2-27.65 6.4-27.65ZM26.55 0L23.45 0 23.45-24.75 26.05-24.75 26.4-22.1Q26.95-23.5 28.2-24.1 29.45-24.7 30.7-24.85L30.7-24.85Q32.1-25.15 33.4-24.9L33.4-24.9 33.4-22.45Q33.2-22.5 32.7-22.55 32.2-22.6 31.62-22.6 31.05-22.6 30.55-22.4L30.55-22.4Q28.85-22.2 27.7-21.18 26.55-20.15 26.55-18.4L26.55-18.4 26.55 0ZM42.5 0.45L42.5 0.45Q40 0.45 38.45-0.13 36.9-0.7 36.2-2.25 35.49-3.8 35.49-6.75L35.49-6.75 35.49-19.1Q35.49-22.6 37.07-23.9 38.65-25.2 42.3-25.2L42.3-25.2Q45.84-25.2 47.42-23.9 49-22.6 49-19.1L49-19.1 49-12.7 38.59-12.7 38.59-5.7Q38.59-3.3 39.34-2.38 40.09-1.45 42.4-1.45L42.4-1.45Q44.5-1.45 45.2-2.35 45.9-3.25 45.9-5.7L45.9-5.7 45.9-8.9 49-8.9 49-6.8Q49-3.9 48.3-2.33 47.59-0.75 46.17-0.15 44.75 0.45 42.5 0.45ZM38.59-19.2L38.59-14.3 45.9-14.3 45.9-19.2Q45.9-21.3 45.2-22.25 44.5-23.2 42.3-23.2L42.3-23.2Q40.09-23.2 39.34-22.25 38.59-21.3 38.59-19.2L38.59-19.2ZM57.94 0.35L57.94 0.35Q56.79 0.35 55.62 0.03 54.44-0.3 53.62-1.48 52.79-2.65 52.79-5.15L52.79-5.15 52.79-7.55Q52.79-10.05 54.32-11.58 55.84-13.1 58.49-14.3L58.49-14.3Q60.19-15.15 61.27-15.8 62.34-16.45 62.89-17.25 63.44-18.05 63.44-19.4L63.44-19.4 63.44-20.45Q63.44-21.65 62.94-22.3 62.44-22.95 61.62-23.2 60.79-23.45 59.89-23.45L59.89-23.45Q57.64-23.45 56.94-22.23 56.24-21 56.24-18.6L56.24-18.6 56.24-16.5 53.39-16.5 53.39-18.9Q53.39-20.75 53.89-22.18 54.39-23.6 55.79-24.43 57.19-25.25 59.89-25.25L59.89-25.25Q62.74-25.25 64.17-24.6 65.59-23.95 66.07-22.75 66.54-21.55 66.54-19.9L66.54-19.9 66.54 0 63.49 0 63.44-3.1Q62.84-1.4 61.29-0.53 59.74 0.35 57.94 0.35ZM59.09-1.75L59.09-1.75Q61.34-1.75 62.37-3.35 63.39-4.95 63.39-7.6L63.39-7.6 63.39-15.5Q62.89-14.7 61.74-14.05 60.59-13.4 59.39-12.75L59.39-12.75Q57.69-11.75 56.77-10.68 55.84-9.6 55.84-7.7L55.84-7.7 55.84-5.75Q55.84-3.95 56.34-3.1 56.84-2.25 57.59-2 58.34-1.75 59.09-1.75ZM74.49 0L71.39 0 71.39-24.75 73.99-24.75 74.34-22Q74.89-23.45 76.17-24.3 77.44-25.15 79.29-25.15L79.29-25.15Q82.19-25.15 83.37-23.95 84.54-22.75 84.59-20.45L84.59-20.45 84.04-20.4Q84.54-22.55 85.97-23.85 87.39-25.15 89.64-25.15L89.64-25.15Q92.74-25.15 93.87-23.7 94.99-22.25 94.99-19.25L94.99-19.25 94.99 0 91.89 0 91.89-18.7Q91.89-21.1 91.17-21.98 90.44-22.85 88.69-22.85L88.69-22.85Q87.04-22.85 85.94-21.88 84.84-20.9 84.74-19.45L84.74-19.45 84.74 0 81.64 0 81.64-19.1Q81.64-21.15 80.92-22 80.19-22.85 78.34-22.85L78.34-22.85Q76.64-22.85 75.77-22.05 74.89-21.25 74.49-20.15L74.49-20.15 74.49 0ZM108.84 0L100.39 0 100.39-29.55 109.24-29.55Q111.14-29.55 112.51-29 113.89-28.45 114.61-27.13 115.34-25.8 115.34-23.5L115.34-23.5 115.34-6.45Q115.34-3.9 114.54-2.5 113.74-1.1 112.26-0.55 110.79 0 108.84 0L108.84 0ZM103.64-27.65L103.64-1.8 108.44-1.8Q110.14-1.8 111.16-2.73 112.19-3.65 112.19-6.3L112.19-6.3 112.19-23.1Q112.19-25.75 111.16-26.7 110.14-27.65 108.44-27.65L108.44-27.65 103.64-27.65ZM127.69 0L124.14 0 118.59-24.75 121.59-24.75 125.94-3.95 130.19-24.75 133.14-24.75 137.64-3.95 141.69-24.75 144.64-24.75 139.29 0 135.74 0 131.64-18.6 127.69 0ZM154.28 0.45L154.28 0.45Q151.78 0.45 150.23-0.13 148.68-0.7 147.98-2.25 147.28-3.8 147.28-6.75L147.28-6.75 147.28-19.1Q147.28-22.6 148.86-23.9 150.43-25.2 154.08-25.2L154.08-25.2Q157.63-25.2 159.21-23.9 160.78-22.6 160.78-19.1L160.78-19.1 160.78-12.7 150.38-12.7 150.38-5.7Q150.38-3.3 151.13-2.38 151.88-1.45 154.18-1.45L154.18-1.45Q156.28-1.45 156.98-2.35 157.68-3.25 157.68-5.7L157.68-5.7 157.68-8.9 160.78-8.9 160.78-6.8Q160.78-3.9 160.08-2.33 159.38-0.75 157.96-0.15 156.53 0.45 154.28 0.45ZM150.38-19.2L150.38-14.3 157.68-14.3 157.68-19.2Q157.68-21.3 156.98-22.25 156.28-23.2 154.08-23.2L154.08-23.2Q151.88-23.2 151.13-22.25 150.38-21.3 150.38-19.2L150.38-19.2ZM168.28 0L165.23 0 165.23-31.7 168.28-31.7 168.28 0ZM176.63 0L173.58 0 173.58-31.7 176.63-31.7 176.63 0ZM184.97 0L181.93 0 181.93-24.75 184.97-24.75 184.97 0ZM183.47-27.8L183.47-27.8Q182.72-27.8 182.2-28.33 181.68-28.85 181.68-29.55L181.68-29.55Q181.68-30.3 182.2-30.78 182.72-31.25 183.47-31.25L183.47-31.25Q184.18-31.25 184.72-30.78 185.28-30.3 185.28-29.55L185.28-29.55Q185.28-28.85 184.72-28.33 184.18-27.8 183.47-27.8ZM193.37 0L190.27 0 190.27-24.75 192.82-24.75 193.22-22.1Q193.62-23.6 195.07-24.4 196.52-25.2 198.07-25.2L198.07-25.2Q200.72-25.2 201.95-24.28 203.17-23.35 203.52-21.88 203.87-20.4 203.87-18.65L203.87-18.65 203.87 0 200.77 0 200.77-18.2Q200.77-19.1 200.72-19.95 200.67-20.8 200.35-21.48 200.02-22.15 199.27-22.55 198.52-22.95 197.07-22.95L197.07-22.95Q195.82-22.95 195.05-22.48 194.27-22 193.9-21.38 193.52-20.75 193.37-20.2L193.37-20.2 193.37 0ZM214.47 5.85L214.47 5.85Q213.92 5.85 213.17 5.8 212.42 5.75 211.69 5.7 210.97 5.65 210.44 5.58 209.92 5.5 209.77 5.45L209.77 5.45 209.77 3.65Q210.37 3.7 211.5 3.85 212.62 4 213.52 4L213.52 4Q214.22 4 215.07 3.9 215.92 3.8 216.75 3.35 217.57 2.9 218.09 1.85 218.62 0.8 218.62-1.05L218.62-1.05 218.62-4.45Q218.32-3.5 217.69-2.75 217.07-2 216.07-1.58 215.07-1.15 213.62-1.15L213.62-1.15Q212.67-1.15 211.69-1.35 210.72-1.55 209.92-2.18 209.12-2.8 208.65-4.13 208.17-5.45 208.17-7.7L208.17-7.7 208.17-19.05Q208.17-22.35 209.47-23.8 210.77-25.25 213.67-25.25L213.67-25.25Q214.97-25.25 216.05-24.9 217.12-24.55 217.87-23.85 218.62-23.15 219.02-22.1L219.02-22.1 218.47-22.1 218.97-24.75 221.67-24.75 221.67-2.1Q221.67-0.15 221.19 1.33 220.72 2.8 219.82 3.83 218.92 4.85 217.57 5.35 216.22 5.85 214.47 5.85ZM214.72-3.15L214.72-3.15Q216.37-3.15 217.19-3.98 218.02-4.8 218.3-6.08 218.57-7.35 218.57-8.65L218.57-8.65 218.57-20.75Q218.42-21.2 218-21.75 217.57-22.3 216.8-22.7 216.02-23.1 214.72-23.1L214.72-23.1Q212.87-23.1 212.07-22.2 211.27-21.3 211.27-18.9L211.27-18.9 211.27-6.95Q211.27-5.65 211.62-4.85 211.97-4.05 212.55-3.7 213.12-3.35 213.72-3.25 214.32-3.15 214.72-3.15ZM232.62 0.35L232.62 0.35Q229.92 0.35 228.42-0.33 226.92-1 226.32-2.48 225.72-3.95 225.72-6.4L225.72-6.4 225.72-8.55 228.87-8.55 228.87-5.7Q228.87-3.35 229.67-2.45 230.47-1.55 232.57-1.55L232.57-1.55Q234.42-1.55 235.29-2.45 236.17-3.35 236.17-5.5L236.17-5.5 236.17-6.9Q236.17-8.05 235.82-8.88 235.47-9.7 234.49-10.4 233.52-11.1 231.77-11.8L231.77-11.8Q230.12-12.45 228.87-13.2 227.62-13.95 226.89-15.1 226.17-16.25 226.17-18.05L226.17-18.05 226.17-19.55Q226.17-22.2 227.69-23.68 229.22-25.15 232.87-25.15L232.87-25.15Q235.27-25.15 236.69-24.5 238.12-23.85 238.79-22.4 239.47-20.95 239.47-18.65L239.47-18.65 239.47-16.55 236.42-16.55 236.42-18.95Q236.42-21.45 235.57-22.38 234.72-23.3 232.87-23.3L232.87-23.3Q230.77-23.3 230.04-22.3 229.32-21.3 229.32-19.8L229.32-19.8 229.32-18.45Q229.32-17.05 229.94-16.15 230.57-15.25 231.72-14.65 232.87-14.05 234.47-13.4L234.47-13.4Q235.92-12.8 237.04-12.13 238.17-11.45 238.82-10.3 239.47-9.15 239.47-7.15L239.47-7.15 239.47-6Q239.47-4 238.84-2.58 238.22-1.15 236.72-0.4 235.22 0.35 232.62 0.35Z" opacity="1" transform="matrix(1,0,0,1,0,0)" fill="#030303" class="wordmark-text-0" data-fill-palette-color="primary" id="text-0"/></svg></g></svg></g></svg></g></svg></g><g transform="matrix(1,0,0,1,145.72604482333702,0)"><svg viewBox="0 0 106.04551035332585 86.84220195472817" height="86.84220195472817" width="106.04551035332585"><g><svg xmlns="http://www.w3.org/2000/svg" viewBox="4.996273324695954 13.14519572667617 90.00891765780815 73.70960429085933" x="0" y="0" height="86.84220195472817" width="106.04551035332585" class="icon-icon-0" data-fill-palette-color="accent" id="icon-0"><g data-name="Layer 1" fill="#030303" data-fill-palette-color="accent"><path d="M33.496 56.31A1.382 1.382 0 0 0 34.879 54.928V43.701A1.382 1.382 0 0 0 33.496 42.319H22.269a1.382 1.382 0 0 0-1.382 1.382V54.928a1.382 1.382 0 0 0 1.382 1.383ZM23.652 45.084h8.461v8.461H23.652Z" fill="#030303" data-fill-palette-color="accent"/><path d="M48.549 56.31H59.776A1.382 1.382 0 0 0 61.159 54.928V43.701a1.382 1.382 0 0 0-1.383-1.382H48.549a1.382 1.382 0 0 0-1.382 1.382V54.928A1.382 1.382 0 0 0 48.549 56.31ZM49.932 45.084h8.462v8.461H49.932Z" fill="#030303" data-fill-palette-color="accent"/><path d="M74.988 35.09a1.383 1.383 0 1 0 1.349-2.414L41.697 13.321a1.383 1.383 0 0 0-1.349 0L5.709 32.676a1.383 1.383 0 1 0 1.348 2.414l33.965-18.979Z" fill="#030303" data-fill-palette-color="accent"/><path d="M41.697 18.851a1.382 1.382 0 0 0-1.349 0L25.06 27.393a1.383 1.383 0 0 0 1.349 2.414l14.613-8.166L55.896 29.952a1.383 1.383 0 1 0 1.349-2.414Z" fill="#030303" data-fill-palette-color="accent"/><path d="M94.184 51.197L70.043 40.35V33.883a1.382 1.382 0 0 0-1.382-1.382H13.385A1.382 1.382 0 0 0 12.002 33.883V85.472a1.382 1.382 0 0 0 1.383 1.383H89.009a1.382 1.382 0 0 0 1.382-1.383V54.928a1.382 1.382 0 0 0-1.382-1.383H70.043V43.381l23.007 10.338a1.382 1.382 0 1 0 1.134-2.522Zm-79.417-15.931h52.511V84.09H49.932V63.423a1.382 1.382 0 0 0-1.383-1.383H33.469a1.382 1.382 0 0 0-1.383 1.383V84.09H14.767ZM34.852 84.09V64.805H47.167V84.09ZM87.626 56.31V84.09H70.043V56.31Z" fill="#030303" data-fill-palette-color="accent"/></g></svg></g></svg></g><g/></svg></g><defs/></svg>