<?xml version="1.0" ?>
<!DOCTYPE svg  PUBLIC '-//W3C//DTD SVG 1.1//EN'  'http://www.w3.org/Graphics/SVG/1.1/DTD/svg11.dtd'>
<!-- Uploaded to: SVG Repo, www.svgrepo.com, Generator: SVG Repo Mixer Tools -->
<svg fill="#000000" width="800px" height="800px" viewBox="0 0 48 48" style="fill-rule:evenodd;clip-rule:evenodd;stroke-linejoin:round;stroke-miterlimit:1.41421;" version="1.1" xml:space="preserve" xmlns="http://www.w3.org/2000/svg" xmlns:serif="http://www.serif.com/" xmlns:xlink="http://www.w3.org/1999/xlink">
<g id="play_details">
<g id="window">
<path d="M3.435,35.209L3.435,12.28C3.435,10.61 4.79,9.254 6.46,9.254L41.11,9.254C42.778,9.254 44.138,10.608 44.138,12.28L44.138,35.209C44.138,36.879 42.782,38.235 41.11,38.235L6.46,38.235C4.79,38.235 3.435,36.879 3.435,35.209ZM42.224,35.209L42.224,12.28C42.224,11.67 41.725,11.17 41.11,11.17L6.46,11.17C5.849,11.17 5.35,11.668 5.35,12.28L5.35,35.209C5.35,35.822 5.849,36.32 6.46,36.32L41.11,36.32C41.724,36.32 42.224,35.822 42.224,35.209Z" id="window1"/>
<path d="M6.796,13.094C6.796,12.587 7.209,12.175 7.716,12.175C8.223,12.175 8.634,12.587 8.634,13.094C8.634,13.598 8.223,14.011 7.716,14.011C7.209,14.011 6.796,13.598 6.796,13.094ZM9.398,13.094C9.398,12.587 9.809,12.175 10.315,12.175C10.822,12.175 11.234,12.587 11.234,13.094C11.234,13.598 10.822,14.011 10.315,14.011C9.809,14.011 9.398,13.598 9.398,13.094ZM11.996,13.094C11.996,12.587 12.408,12.175 12.913,12.175C13.419,12.175 13.832,12.587 13.832,13.094C13.832,13.598 13.419,14.011 12.913,14.011C12.408,14.011 11.996,13.598 11.996,13.094Z" id="window-actions"/>
</g>
<path d="M6.441,34.77L6.441,33.611L7.602,33.611L7.602,34.77L6.441,34.77ZM8.426,34.77L8.426,33.611L9.583,33.611L9.583,34.77L8.426,34.77ZM10.408,34.77L10.408,33.611L11.566,33.611L11.566,34.77L10.408,34.77ZM12.392,34.77L12.392,33.611L13.551,33.611L13.551,34.77L12.392,34.77ZM34.02,34.77L34.02,33.611L35.18,33.611L35.18,34.77L34.02,34.77ZM36.004,34.77L36.004,33.611L37.161,33.611L37.161,34.77L36.004,34.77ZM37.987,34.77L37.987,33.611L39.145,33.611L39.145,34.77L37.987,34.77ZM39.969,34.77L39.969,33.611L41.13,33.611L41.13,34.77L39.969,34.77ZM6.441,32.92L6.441,31.762L7.602,31.762L7.602,32.92L6.441,32.92ZM8.426,32.92L8.426,31.762L9.583,31.762L9.583,32.92L8.426,32.92ZM10.408,32.92L10.408,31.762L11.566,31.762L11.566,32.92L10.408,32.92ZM12.392,32.92L12.392,31.762L13.551,31.762L13.551,32.92L12.392,32.92ZM34.02,32.92L34.02,31.762L35.18,31.762L35.18,32.92L34.02,32.92ZM36.004,32.92L36.004,31.762L37.161,31.762L37.161,32.92L36.004,32.92ZM37.987,32.92L37.987,31.762L39.145,31.762L39.145,32.92L37.987,32.92ZM39.969,32.92L39.969,31.762L41.13,31.762L41.13,32.92L39.969,32.92ZM6.441,31.071L6.441,29.91L7.602,29.91L7.602,31.071L6.441,31.071ZM8.426,31.071L8.426,29.91L9.583,29.91L9.583,31.071L8.426,31.071ZM10.408,31.071L10.408,29.91L11.566,29.91L11.566,31.071L10.408,31.071ZM12.392,31.071L12.392,29.91L13.551,29.91L13.551,31.071L12.392,31.071ZM34.02,31.071L34.02,29.91L35.18,29.91L35.18,31.071L34.02,31.071ZM36.004,31.071L36.004,29.91L37.161,29.91L37.161,31.071L36.004,31.071ZM37.987,31.071L37.987,29.91L39.145,29.91L39.145,31.071L37.987,31.071ZM39.969,31.071L39.969,29.91L41.13,29.91L41.13,31.071L39.969,31.071ZM6.444,29.121L6.444,27.963L7.602,27.963L7.602,29.121L6.444,29.121ZM8.428,29.121L8.428,27.963L9.585,27.963L9.585,29.121L8.428,29.121ZM10.41,29.121L10.41,27.963L11.569,27.963L11.569,29.121L10.41,29.121ZM12.394,29.121L12.394,27.963L13.554,27.963L13.554,29.121L12.394,29.121ZM34.022,29.121L34.022,27.963L35.18,27.963L35.18,29.121L34.022,29.121ZM36.006,29.121L36.006,27.963L37.163,27.963L37.163,29.121L36.006,29.121ZM37.989,29.121L37.989,27.963L39.147,27.963L39.147,29.121L37.989,29.121ZM39.972,29.121L39.972,27.963L41.132,27.963L41.132,29.121L39.972,29.121ZM6.441,27.272L6.441,26.112L7.602,26.112L7.602,27.272L6.441,27.272ZM8.426,27.272L8.426,26.112L9.585,26.112L9.585,27.272L8.426,27.272ZM10.408,27.272L10.408,26.112L11.569,26.112L11.569,27.272L10.408,27.272ZM12.394,27.272L12.394,26.112L13.551,26.112L13.551,27.272L12.394,27.272ZM34.02,27.272L34.02,26.112L35.18,26.112L35.18,27.272L34.02,27.272ZM36.004,27.272L36.004,26.112L37.163,26.112L37.163,27.272L36.004,27.272ZM37.987,27.272L37.987,26.112L39.147,26.112L39.147,27.272L37.987,27.272ZM39.972,27.272L39.972,26.112L41.13,26.112L41.13,27.272L39.972,27.272ZM6.441,25.421L6.441,24.263L7.602,24.263L7.602,25.421L6.441,25.421ZM8.426,25.421L8.426,24.263L9.585,24.263L9.585,25.421L8.426,25.421ZM10.408,25.421L10.408,24.263L11.569,24.263L11.569,25.421L10.408,25.421ZM12.394,25.421L12.394,24.263L13.551,24.263L13.551,25.421L12.394,25.421ZM34.02,25.421L34.02,24.263L35.18,24.263L35.18,25.421L34.02,25.421ZM36.004,25.421L36.004,24.263L37.163,24.263L37.163,25.421L36.004,25.421ZM37.987,25.421L37.987,24.263L39.147,24.263L39.147,25.421L37.987,25.421ZM39.972,25.421L39.972,24.263L41.13,24.263L41.13,25.421L39.972,25.421ZM6.441,23.569L6.441,22.412L7.602,22.412L7.602,23.569L6.441,23.569ZM8.426,23.569L8.426,22.412L9.585,22.412L9.585,23.569L8.426,23.569ZM10.408,23.569L10.408,22.412L11.569,22.412L11.569,23.569L10.408,23.569ZM12.394,23.569L12.394,22.412L13.551,22.412L13.551,23.569L12.394,23.569ZM34.02,23.569L34.02,22.412L35.18,22.412L35.18,23.569L34.02,23.569ZM36.004,23.569L36.004,22.412L37.163,22.412L37.163,23.569L36.004,23.569ZM37.987,23.569L37.987,22.412L39.147,22.412L39.147,23.569L37.987,23.569ZM39.972,23.569L39.972,22.412L41.13,22.412L41.13,23.569L39.972,23.569ZM6.441,21.72L6.441,20.561L7.602,20.561L7.602,21.72L6.441,21.72ZM8.426,21.72L8.426,20.561L9.583,20.561L9.583,21.72L8.426,21.72ZM10.408,21.72L10.408,20.561L11.566,20.561L11.566,21.72L10.408,21.72ZM12.392,21.72L12.392,20.561L13.551,20.561L13.551,21.72L12.392,21.72ZM34.02,21.72L34.02,20.561L35.18,20.561L35.18,21.72L34.02,21.72ZM36.004,21.72L36.004,20.561L37.161,20.561L37.161,21.72L36.004,21.72ZM37.987,21.72L37.987,20.561L39.145,20.561L39.145,21.72L37.987,21.72ZM39.969,21.72L39.969,20.561L41.13,20.561L41.13,21.72L39.969,21.72ZM6.441,19.868L6.441,18.711L7.602,18.711L7.602,19.868L6.441,19.868ZM8.426,19.868L8.426,18.711L9.583,18.711L9.583,19.868L8.426,19.868ZM10.408,19.868L10.408,18.711L11.566,18.711L11.566,19.868L10.408,19.868ZM12.392,19.868L12.392,18.711L13.551,18.711L13.551,19.868L12.392,19.868ZM34.02,19.868L34.02,18.711L35.18,18.711L35.18,19.868L34.02,19.868ZM36.004,19.868L36.004,18.711L37.161,18.711L37.161,19.868L36.004,19.868ZM37.987,19.868L37.987,18.711L39.145,18.711L39.145,19.868L37.987,19.868ZM39.969,19.868L39.969,18.711L41.13,18.711L41.13,19.868L39.969,19.868ZM6.441,18.02L6.441,16.86L7.602,16.86L7.602,18.02L6.441,18.02ZM8.426,18.02L8.426,16.86L9.583,16.86L9.583,18.02L8.426,18.02ZM10.408,18.02L10.408,16.86L11.566,16.86L11.566,18.02L10.408,18.02ZM12.392,18.02L12.392,16.86L13.551,16.86L13.551,18.02L12.392,18.02ZM34.02,18.02L34.02,16.86L35.18,16.86L35.18,18.02L34.02,18.02ZM36.004,18.02L36.004,16.86L37.161,16.86L37.161,18.02L36.004,18.02ZM37.987,18.02L37.987,16.86L39.145,16.86L39.145,18.02L37.987,18.02ZM39.969,18.02L39.969,16.86L41.13,16.86L41.13,18.02L39.969,18.02Z" id="grid"/>
<g id="details">
<path d="M15.143,34.12L15.143,17.511C15.143,17.22 15.382,16.979 15.676,16.979L31.897,16.979C32.188,16.979 32.428,17.22 32.428,17.511L32.428,34.12C32.428,34.413 32.188,34.651 31.897,34.651L15.676,34.651C15.382,34.651 15.143,34.413 15.143,34.12ZM31.365,33.588L31.365,18.043L16.207,18.043L16.207,33.588L31.365,33.588Z" id="container"/>
<path d="M18.214,31.022C18.214,30.73 18.452,30.489 18.745,30.489L27.215,30.489C27.507,30.489 27.747,30.73 27.747,31.022C27.747,31.315 27.507,31.553 27.215,31.553L18.745,31.553C18.452,31.553 18.214,31.315 18.214,31.022ZM18.216,28.938C18.216,28.646 18.454,28.406 18.749,28.406L24.723,28.406C25.015,28.406 25.255,28.646 25.255,28.938C25.255,29.231 25.015,29.471 24.723,29.471L18.749,29.471C18.454,29.471 18.216,29.231 18.216,28.938ZM18.216,26.732C18.216,26.439 18.454,26.199 18.749,26.199L27.217,26.199C27.509,26.199 27.749,26.439 27.749,26.732C27.749,27.025 27.509,27.264 27.217,27.264L18.749,27.264C18.454,27.264 18.216,27.025 18.216,26.732Z" id="details-lines"/>
<path d="M22.181,21.909L18.731,23.901C18.448,24.067 18.216,23.934 18.216,23.604L18.214,19.62C18.214,19.29 18.446,19.156 18.731,19.32L22.181,21.312C22.466,21.476 22.466,21.745 22.181,21.909Z" id="play"/>
</g>
</g>
</svg>