<svg xmlns="http://www.w3.org/2000/svg" xmlns:xlink="http://www.w3.org/1999/xlink" viewBox="0 0 97.83224064708415 97.83224064708415" height="97.83224064708415" width="97.83224064708415" data-background-color="#ffffff" preserveAspectRatio="xMidYMid meet" id="tight-bounds"><g><svg/></g><g><svg viewBox="0 0 97.83224064708415 97.83224064708415" height="97.83224064708415" width="97.83224064708415"><g><path d="M0 48.916c0-27.016 21.9-48.916 48.916-48.916 27.016 0 48.916 21.9 48.916 48.916 0 27.016-21.9 48.916-48.916 48.916-27.016 0-48.916-21.9-48.916-48.916zM48.916 93.626c24.693 0 44.71-20.017 44.71-44.71 0-24.693-20.017-44.71-44.71-44.71-24.693 0-44.71 20.017-44.71 44.71 0 24.693 20.017 44.71 44.71 44.71z" data-fill-palette-color="tertiary" fill="#113f67" stroke="transparent"/><ellipse rx="46.95947551060039" ry="46.95947551060039" cx="48.916120323542074" cy="48.916120323542074" fill="#113f67" stroke="transparent" stroke-width="0" fill-opacity="1" data-fill-palette-color="tertiary"/></g><g transform="matrix(1,0,0,1,23.47539391502934,25.595101572630377)"><svg viewBox="0 0 50.88145281702547 46.642037501823395" height="46.642037501823395" width="50.88145281702547"><g><svg viewBox="0 0 50.88145281702547 46.642037501823395" height="46.642037501823395" width="50.88145281702547"><g><svg viewBox="0 0 50.88145281702547 46.642037501823395" height="46.642037501823395" width="50.88145281702547"><g id="textblocktransform"><svg viewBox="0 0 50.88145281702547 46.642037501823395" height="46.642037501823395" width="50.88145281702547" id="textblock"><g><svg viewBox="0 0 50.88145281702547 46.642037501823395" height="46.642037501823395" width="50.88145281702547"><g><svg viewBox="0 0 50.88145281702547 46.642037501823395" height="46.642037501823395" width="50.88145281702547"><g><svg xmlns="http://www.w3.org/2000/svg" xml:space="preserve" viewBox="14.017999649047852 17.016000747680664 71.96400451660156 65.96800231933594" x="0" y="0" height="46.642037501823395" width="50.88145281702547" class="icon-icon-0" data-fill-palette-color="quaternary" id="icon-0"><path d="M50 17.02L14.018 47.074H20.1v35.91h23.902v-17.99h11.994v17.99H80.07v-35.91h5.912zM77.986 17.016H65.992v8.021l11.994 9.971z" fill="#ffffff" data-fill-palette-color="quaternary"/></svg></g></svg></g></svg></g></svg></g></svg></g><g/></svg></g></svg></g></svg></g><defs/></svg>