<svg xmlns="http://www.w3.org/2000/svg" viewBox="0 0 342.85155851775386 342.85155851775386" height="342.85155851775386" width="342.85155851775386"><g><svg/></g><g><svg viewBox="0 0 342.85155851775386 342.85155851775386" height="342.85155851775386" width="342.85155851775386"><g><path d="M0 171.426c0-94.676 76.75-171.426 171.426-171.426 94.676 0 171.426 76.75 171.426 171.426 0 94.676-76.75 171.426-171.426 171.426-94.676 0-171.426-76.75-171.426-171.426zM171.426 339.929c93.062 0 168.503-75.441 168.503-168.503 0-93.062-75.441-168.503-168.503-168.503-93.062 0-168.503 75.441-168.503 168.503 0 93.062 75.441 168.503 168.503 168.503z" data-fill-palette-color="tertiary" fill="#113f67" stroke="transparent"/><ellipse rx="164.56874808852186" ry="164.56874808852186" cx="171.42577925887693" cy="171.42577925887693" fill="#113f67" stroke="transparent" stroke-width="0" fill-opacity="1" data-fill-palette-color="tertiary"/></g><g transform="matrix(1,0,0,1,64.84655864529837,128.9989627053925)"><svg viewBox="0 0 213.1584412271571 84.85363310696887" height="84.85363310696887" width="213.1584412271571"><g><svg viewBox="0 0 213.1584412271571 84.85363310696887" height="84.85363310696887" width="213.1584412271571"><g><svg viewBox="0 0 213.1584412271571 84.85363310696887" height="84.85363310696887" width="213.1584412271571"><g transform="matrix(1,0,0,1,0,52.44294941903588)"><svg viewBox="0 0 213.1584412271571 32.410683687932995" height="32.410683687932995" width="213.1584412271571"><g id="textblocktransform"><svg viewBox="0 0 213.1584412271571 32.410683687932995" height="32.410683687932995" width="213.1584412271571" id="textblock"><g><svg viewBox="0 0 213.1584412271571 32.410683687932995" height="32.410683687932995" width="213.1584412271571"><g transform="matrix(1,0,0,1,0,0)"><svg width="213.1584412271571" viewBox="1.7 -36.15 297.57 45.25" height="32.410683687932995" data-palette-color="#ffffff"><path d="M1.7 0L6.55-34.3 16.7-34.3Q22.2-34.3 25.18-31.05 28.15-27.8 28.15-21.45L28.15-21.45Q28.15-16.5 26.6-11.58 25.05-6.65 21.7-3.33 18.35 0 13.25 0L13.25 0 1.7 0ZM6.7-4L12.75-4Q16.75-4 19.18-6.73 21.6-9.45 22.6-13.4 23.6-17.35 23.6-21.4L23.6-21.4Q23.6-25.85 21.68-28.08 19.75-30.3 16.2-30.3L16.2-30.3 10.35-30.3 6.7-4ZM30.4 0L34.1-26.3 37.3-26.3 37.3-22.1Q38.35-24.3 39.47-25.6 40.6-26.9 42.55-26.9L42.55-26.9Q43.6-26.9 44.45-26.5L44.45-26.5 43.85-22.25 42.5-22.25Q40.45-22.25 38.77-20.4 37.1-18.55 36.65-15.2L36.65-15.2 34.5 0 30.4 0ZM53.5 0.6Q49.35 0.6 47.17-1.78 45-4.15 45-8.95L45-8.95Q45-16.1 47.52-21.5 50.05-26.9 56.15-26.9L56.15-26.9Q64.25-26.9 64.25-17.45L64.25-17.45Q64.25-14.5 63.85-11.95L63.85-11.95 49.4-11.95Q49.25-10.4 49.25-9.3L49.25-9.3Q49.25-3.05 53.5-3.05L53.5-3.05Q55.65-3.05 57.17-4.75 58.7-6.45 59.05-8.9L59.05-8.9 63.2-8.9Q62.55-4.8 60.02-2.1 57.5 0.6 53.5 0.6L53.5 0.6ZM49.9-15.6L59.95-15.6Q60-16.25 60-17.4L60-17.4Q60-23.25 56.15-23.25L56.15-23.25Q53.65-23.25 52.12-21.08 50.6-18.9 49.9-15.6L49.9-15.6ZM74.34 0.6Q71.29 0.6 69.49-1.85 67.69-4.3 67.69-9.15L67.69-9.15Q67.69-14.9 69.17-18.9 70.64-22.9 72.97-24.9 75.29-26.9 77.84-26.9L77.84-26.9Q81.99-26.9 83.29-22.65L83.29-22.65 84.19-26.3 87.44-26.3Q84.39-5 84.39-4.45L84.39-4.45Q84.39-3.75 84.72-3.4 85.04-3.05 85.59-3.05L85.59-3.05 87.19-3.05 86.79-0.2Q85.64 0.6 83.99 0.6L83.99 0.6Q82.34 0.6 81.39-0.4 80.44-1.4 80.39-3.55L80.39-3.55Q78.94-1.4 77.52-0.4 76.09 0.6 74.34 0.6L74.34 0.6ZM75.59-3.05Q77.74-3.05 79.17-5.65 80.59-8.25 81.24-11.68 81.89-15.1 81.89-17.6L81.89-17.6Q81.89-23.25 78.44-23.25L78.44-23.25Q75.99-23.25 74.52-20.73 73.04-18.2 72.47-14.85 71.89-11.5 71.89-8.75L71.89-8.75Q71.89-3.05 75.59-3.05L75.59-3.05ZM89.94 0L93.64-26.3 96.84-26.3 96.84-22.4Q97.64-24.05 99.29-25.48 100.94-26.9 103.59-26.9L103.59-26.9Q105.99-26.9 107.24-25.63 108.49-24.35 108.79-22.3L108.79-22.3Q109.64-24 111.27-25.45 112.89-26.9 115.59-26.9L115.59-26.9Q118.39-26.9 119.64-25.23 120.89-23.55 120.89-21L120.89-21Q120.89-19.5 118.09 0L118.09 0 113.99 0Q116.69-18.55 116.69-20.05L116.69-20.05Q116.69-23.25 114.09-23.25L114.09-23.25Q111.84-23.25 110.29-21.1 108.74-18.95 108.24-15.35L108.24-15.35 106.09 0 101.99 0Q104.69-18.55 104.69-20.05L104.69-20.05Q104.69-23.25 102.09-23.25L102.09-23.25Q99.74-23.25 98.19-20.93 96.64-18.6 96.09-14.7L96.09-14.7 94.04 0 89.94 0ZM124.69 0L129.54-34.3 139.69-34.3Q145.19-34.3 148.16-31.05 151.14-27.8 151.14-21.45L151.14-21.45Q151.14-16.5 149.59-11.58 148.04-6.65 144.69-3.33 141.34 0 136.24 0L136.24 0 124.69 0ZM129.69-4L135.74-4Q139.74-4 142.16-6.73 144.59-9.45 145.59-13.4 146.59-17.35 146.59-21.4L146.59-21.4Q146.59-25.85 144.66-28.08 142.74-30.3 139.19-30.3L139.19-30.3 133.34-30.3 129.69-4ZM157.64 0L154.74-26.3 158.69-26.3 160.19-11.5Q160.59-7.75 160.64-4.65L160.64-4.65 160.84-4.65Q161.59-8.95 162.39-11.5L162.39-11.5 167.09-26.3 171.99-26.3 172.69-11.5Q172.74-10.9 172.74-4.65L172.74-4.65 172.94-4.65Q173.74-8.65 174.79-11.5L174.79-11.5 180.34-26.3 184.19-26.3 173.99 0 169.44 0 168.74-17.1Q168.74-19.1 168.94-21.9L168.94-21.9 168.74-21.9Q167.94-17.6 167.09-15L167.09-15 162.24 0 157.64 0ZM192.43 0.6Q188.28 0.6 186.11-1.78 183.93-4.15 183.93-8.95L183.93-8.95Q183.93-16.1 186.46-21.5 188.98-26.9 195.08-26.9L195.08-26.9Q203.18-26.9 203.18-17.45L203.18-17.45Q203.18-14.5 202.78-11.95L202.78-11.95 188.33-11.95Q188.18-10.4 188.18-9.3L188.18-9.3Q188.18-3.05 192.43-3.05L192.43-3.05Q194.58-3.05 196.11-4.75 197.63-6.45 197.98-8.9L197.98-8.9 202.13-8.9Q201.48-4.8 198.96-2.1 196.43 0.6 192.43 0.6L192.43 0.6ZM188.83-15.6L198.88-15.6Q198.93-16.25 198.93-17.4L198.93-17.4Q198.93-23.25 195.08-23.25L195.08-23.25Q192.58-23.25 191.06-21.08 189.53-18.9 188.83-15.6L188.83-15.6ZM205.78 0L210.78-36.15 214.88-36.15 209.83 0 205.78 0ZM214.88 0L219.88-36.15 223.98-36.15 218.93 0 214.88 0ZM225.08 0L228.73-26.3 232.83-26.3 229.13 0 225.08 0ZM229.33-31.4L230.03-36.15 234.28-36.15 233.58-31.4 229.33-31.4ZM235.67 0L239.37-26.3 242.57-26.3 242.57-22.4Q243.42-24.1 245.12-25.5 246.82-26.9 249.57-26.9L249.57-26.9Q252.57-26.9 253.92-25.23 255.27-23.55 255.27-21L255.27-21Q255.27-19.5 252.47 0L252.47 0 248.37 0Q251.07-18.55 251.07-20.05L251.07-20.05Q251.07-23.25 248.07-23.25L248.07-23.25Q245.62-23.25 244-20.93 242.37-18.6 241.82-14.7L241.82-14.7 239.77 0 235.67 0ZM265.62 9.1Q261.77 9.1 259.75 6.85 257.72 4.6 257.72 1.2L257.72 1.2 261.82 1.2Q261.82 5.5 265.77 5.5L265.77 5.5Q268.17 5.5 269.55 3.88 270.92 2.25 271.47-1.25L271.47-1.25 272.02-4.55Q270.67-2.4 269.22-1.4 267.77-0.4 265.92-0.4L265.92-0.4Q262.47-0.4 260.85-3.05 259.22-5.7 259.22-9.5L259.22-9.5Q259.22-15.2 260.67-19.13 262.12-23.05 264.42-24.98 266.72-26.9 269.32-26.9L269.32-26.9Q271.37-26.9 272.8-25.93 274.22-24.95 274.97-22.65L274.97-22.65 275.82-26.3 279.07-26.3 275.72-2.45Q274.87 3.6 272.39 6.35 269.92 9.1 265.62 9.1L265.62 9.1ZM267.22-4.05Q269.47-4.05 270.89-6.48 272.32-8.9 272.94-12.08 273.57-15.25 273.57-17.6L273.57-17.6Q273.47-23.25 269.87-23.25L269.87-23.25Q267.37-23.25 265.94-20.78 264.52-18.3 263.97-15.08 263.42-11.85 263.42-9.1L263.42-9.1Q263.42-4.05 267.22-4.05L267.22-4.05ZM289.47 0.6Q287.17 0.6 285.29-0.4 283.42-1.4 282.32-3.25 281.22-5.1 281.22-7.5L281.22-7.5Q281.22-8.55 281.32-9.1L281.32-9.1 285.57-9.1Q285.42-8.3 285.42-7.5L285.42-7.5Q285.42-5.3 286.67-4.15 287.92-3 289.87-3L289.87-3Q291.57-3 292.62-4.08 293.67-5.15 293.67-6.75L293.67-6.75Q293.67-8.6 292.57-9.68 291.47-10.75 289.22-12.1L289.22-12.1Q287.42-13.15 286.32-14 285.22-14.85 284.44-16.2 283.67-17.55 283.67-19.5L283.67-19.5Q283.67-22.75 285.79-24.83 287.92-26.9 291.77-26.9L291.77-26.9Q295.52-26.9 297.39-24.53 299.27-22.15 299.27-18.65L299.27-18.65 295.02-18.65Q295.02-21.15 293.97-22.23 292.92-23.3 291.32-23.3L291.32-23.3Q290.07-23.3 288.99-22.43 287.92-21.55 287.92-20.1L287.92-20.1Q287.92-18.25 288.99-17.25 290.07-16.25 292.27-15.05L292.27-15.05Q294.07-14.05 295.19-13.23 296.32-12.4 297.12-10.98 297.92-9.55 297.92-7.4L297.92-7.4Q297.92-3.65 295.64-1.53 293.37 0.6 289.47 0.6L289.47 0.6Z" opacity="1" transform="matrix(1,0,0,1,0,0)" fill="#ffffff" class="wordmark-text-0" data-fill-palette-color="quaternary" id="text-0"/></svg></g></svg></g></svg></g></svg></g><g transform="matrix(1,0,0,1,84.18343818521686,0)"><svg viewBox="0 0 44.791564856723404 44.791564856723404" height="44.791564856723404" width="44.791564856723404"><g><svg xmlns="http://www.w3.org/2000/svg" xmlns:xlink="http://www.w3.org/1999/xlink" version="1.1" x="0" y="0" viewBox="14.017000000000001 14.018 71.965 71.965" enable-background="new 0 0 100 100" xml:space="preserve" height="44.791564856723404" width="44.791564856723404" class="icon-icon-0" data-fill-palette-color="quaternary" id="icon-0"><g display="none" fill="#ffffff" data-fill-palette-color="quaternary"><path display="inline" d="M75.186 68.916c0 0-6.082 0.422-12.528 0.781-2.398-2.686-2.07-9.439-1.767-12.604 2.509-2.766 4.729-6.279 6.044-10.264 0.136 0.223 0.29 0.414 0.494 0.523 2.248 1.238 1.689-3.824 1.797-5.959 0.111-2.137 1.688-4.947 0-4.947-0.456 0-0.79 0.068-1.047 0.164-0.311-12.205-3.23-21.717-17.954-21.717-15.678 0-17.782 9.639-17.973 21.963-0.247-0.213-0.685-0.41-1.479-0.41-1.688 0-0.114 2.811 0 4.947 0.112 2.135-0.448 7.197 1.799 5.959 0.33-0.184 0.557-0.543 0.711-1.004 1.202 4.068 3.329 7.666 5.796 10.512 0.312 3.045 0.721 10.061-1.726 12.82-6.478-0.354-12.541-0.766-12.541-0.766-5.961 0-10.795 4.832-10.795 10.793v5.396h71.965v-5.396C85.982 73.748 81.146 68.916 75.186 68.916z" fill="#ffffff" data-fill-palette-color="quaternary"/></g><g display="none" fill="#ffffff" data-fill-palette-color="quaternary"><polygon display="inline" points="52.996,40.028 52.996,24.036 47.006,24.036 47.006,40.028 14.064,40.028 26.045,75.964    73.957,75.964 85.936,40.028  " fill="#ffffff" data-fill-palette-color="quaternary"/></g><g display="none" fill="#ffffff" data-fill-palette-color="quaternary"><path display="inline" d="M20.015 14.018v71.965h59.971V14.018H20.015zM35.008 75.988h-5.995v-6h5.995V75.988zM35.008 63.994h-5.995v-5.998h5.995V63.994zM35.008 51.998h-5.995v-5.996h5.995V51.998zM47.001 75.988h-5.994v-6h5.994V75.988zM47.001 63.994h-5.994v-5.998h5.994V63.994zM47.001 51.998h-5.994v-5.996h5.994V51.998zM58.997 75.988h-5.995v-6h5.995V75.988zM58.997 63.994h-5.995v-5.998h5.995V63.994zM58.997 51.998h-5.995v-5.996h5.995V51.998zM70.991 75.988h-5.999v-6h5.999V75.988zM70.991 63.994h-5.999v-5.998h5.999V63.994zM70.991 51.998h-5.999v-5.996h5.999V51.998zM73.99 36.008H26.016V24.014H73.99V36.008z" fill="#ffffff" data-fill-palette-color="quaternary"/></g><g fill="#ffffff" data-fill-palette-color="quaternary"><polygon points="50,17.02 14.018,47.074 20.1,47.074 20.1,82.984 44.002,82.984 44.002,64.994 55.996,64.994 55.996,82.984    80.07,82.984 80.07,47.074 85.982,47.074  " fill="#ffffff" data-fill-palette-color="quaternary"/><polygon points="77.986,17.016 65.992,17.016 65.992,25.037 77.986,35.008  " fill="#ffffff" data-fill-palette-color="quaternary"/></g></svg></g></svg></g><g/></svg></g></svg></g></svg></g></svg></g><defs/></svg>